<mxfile host="Electron" modified="2025-02-05T14:28:36.673Z" agent="Mozilla/5.0 (Windows NT 10.0; Win64; x64) AppleWebKit/537.36 (KHTML, like Gecko) draw.io/21.8.2 Chrome/114.0.5735.289 Electron/25.8.1 Safari/537.36" etag="VNLAYrXlTOHbxazB8ZZQ" version="21.8.2" type="device">
  <diagram name="加密解密" id="QOrJHsdj5KBZuKTy4iQC">
    <mxGraphModel dx="937" dy="657" grid="1" gridSize="10" guides="1" tooltips="1" connect="1" arrows="1" fold="1" page="1" pageScale="1" pageWidth="827" pageHeight="1169" math="0" shadow="0">
      <root>
        <mxCell id="0" />
        <mxCell id="1" parent="0" />
        <mxCell id="wjPzUMsghU-6CyUc37jF-1" value="&lt;h1 style=&quot;&quot;&gt;&lt;font style=&quot;font-size: 18px;&quot;&gt;明文&lt;/font&gt;&lt;/h1&gt;&lt;p&gt;Hello Cipher&lt;/p&gt;" style="text;html=1;strokeColor=#82b366;fillColor=#d5e8d4;spacing=5;spacingTop=-20;whiteSpace=wrap;overflow=hidden;rounded=0;align=left;" vertex="1" parent="1">
          <mxGeometry x="90" y="50" width="140" height="80" as="geometry" />
        </mxCell>
        <mxCell id="wjPzUMsghU-6CyUc37jF-2" value="" style="shape=flexArrow;endArrow=classic;html=1;rounded=0;exitX=1;exitY=0.5;exitDx=0;exitDy=0;fillColor=#fff2cc;strokeColor=#d6b656;" edge="1" parent="1" source="wjPzUMsghU-6CyUc37jF-1">
          <mxGeometry width="50" height="50" relative="1" as="geometry">
            <mxPoint x="380" y="220" as="sourcePoint" />
            <mxPoint x="370" y="90" as="targetPoint" />
          </mxGeometry>
        </mxCell>
        <mxCell id="wjPzUMsghU-6CyUc37jF-3" value="&lt;b&gt;&lt;font style=&quot;font-size: 14px;&quot;&gt;加密&lt;/font&gt;&lt;/b&gt;" style="edgeLabel;html=1;align=center;verticalAlign=middle;resizable=0;points=[];" vertex="1" connectable="0" parent="wjPzUMsghU-6CyUc37jF-2">
          <mxGeometry x="-0.0666" relative="1" as="geometry">
            <mxPoint as="offset" />
          </mxGeometry>
        </mxCell>
        <mxCell id="wjPzUMsghU-6CyUc37jF-4" value="" style="image;sketch=0;aspect=fixed;html=1;points=[];align=center;fontSize=12;image=img/lib/mscae/Key.svg;" vertex="1" parent="1">
          <mxGeometry x="280" y="30" width="31" height="50" as="geometry" />
        </mxCell>
        <mxCell id="wjPzUMsghU-6CyUc37jF-5" value="&lt;b&gt;算法&lt;/b&gt;" style="shape=image;html=1;verticalLabelPosition=bottom;verticalAlign=top;imageAspect=1;aspect=fixed;image=img/clipart/Gear_128x128.png" vertex="1" parent="1">
          <mxGeometry x="269.5" y="100" width="52" height="61" as="geometry" />
        </mxCell>
        <mxCell id="wjPzUMsghU-6CyUc37jF-7" value="&lt;h1 style=&quot;&quot;&gt;&lt;font style=&quot;font-size: 18px;&quot;&gt;密文&lt;/font&gt;&lt;/h1&gt;&lt;p&gt;&amp;amp;*&amp;amp;(*&amp;amp;*(*(@&lt;/p&gt;" style="text;html=1;strokeColor=#82b366;fillColor=#d5e8d4;spacing=5;spacingTop=-20;whiteSpace=wrap;overflow=hidden;rounded=0;align=left;" vertex="1" parent="1">
          <mxGeometry x="370" y="50" width="140" height="80" as="geometry" />
        </mxCell>
        <mxCell id="wjPzUMsghU-6CyUc37jF-8" value="" style="shape=flexArrow;endArrow=classic;html=1;rounded=0;exitX=1;exitY=0.5;exitDx=0;exitDy=0;fillColor=#fff2cc;strokeColor=#d6b656;" edge="1" parent="1">
          <mxGeometry width="50" height="50" relative="1" as="geometry">
            <mxPoint x="510" y="90" as="sourcePoint" />
            <mxPoint x="650" y="90" as="targetPoint" />
          </mxGeometry>
        </mxCell>
        <mxCell id="wjPzUMsghU-6CyUc37jF-9" value="&lt;b&gt;&lt;font style=&quot;font-size: 14px;&quot;&gt;解密&lt;/font&gt;&lt;/b&gt;" style="edgeLabel;html=1;align=center;verticalAlign=middle;resizable=0;points=[];" vertex="1" connectable="0" parent="wjPzUMsghU-6CyUc37jF-8">
          <mxGeometry x="-0.0666" relative="1" as="geometry">
            <mxPoint as="offset" />
          </mxGeometry>
        </mxCell>
        <mxCell id="wjPzUMsghU-6CyUc37jF-10" value="" style="image;sketch=0;aspect=fixed;html=1;points=[];align=center;fontSize=12;image=img/lib/mscae/Key.svg;" vertex="1" parent="1">
          <mxGeometry x="560" y="30" width="31" height="50" as="geometry" />
        </mxCell>
        <mxCell id="wjPzUMsghU-6CyUc37jF-11" value="&lt;b&gt;算法&lt;/b&gt;" style="shape=image;html=1;verticalLabelPosition=bottom;verticalAlign=top;imageAspect=1;aspect=fixed;image=img/clipart/Gear_128x128.png" vertex="1" parent="1">
          <mxGeometry x="549.5" y="100" width="52" height="61" as="geometry" />
        </mxCell>
        <mxCell id="wjPzUMsghU-6CyUc37jF-12" value="&lt;h1 style=&quot;&quot;&gt;&lt;font style=&quot;font-size: 18px;&quot;&gt;明文&lt;/font&gt;&lt;/h1&gt;&lt;p&gt;Hello Cipher&lt;/p&gt;" style="text;html=1;strokeColor=#82b366;fillColor=#d5e8d4;spacing=5;spacingTop=-20;whiteSpace=wrap;overflow=hidden;rounded=0;align=left;" vertex="1" parent="1">
          <mxGeometry x="650" y="50" width="140" height="80" as="geometry" />
        </mxCell>
        <mxCell id="wjPzUMsghU-6CyUc37jF-13" value="&lt;h1 style=&quot;&quot;&gt;&lt;font style=&quot;font-size: 18px;&quot;&gt;明文&lt;/font&gt;&lt;/h1&gt;&lt;p&gt;Hello Cipher&lt;/p&gt;" style="text;html=1;strokeColor=#82b366;fillColor=#d5e8d4;spacing=5;spacingTop=-20;whiteSpace=wrap;overflow=hidden;rounded=0;align=left;" vertex="1" parent="1">
          <mxGeometry x="90" y="390" width="140" height="80" as="geometry" />
        </mxCell>
        <mxCell id="wjPzUMsghU-6CyUc37jF-14" value="" style="shape=flexArrow;endArrow=classic;html=1;rounded=0;exitX=1;exitY=0.5;exitDx=0;exitDy=0;fillColor=#fff2cc;strokeColor=#d6b656;" edge="1" parent="1" source="wjPzUMsghU-6CyUc37jF-13">
          <mxGeometry width="50" height="50" relative="1" as="geometry">
            <mxPoint x="380" y="560" as="sourcePoint" />
            <mxPoint x="370" y="430" as="targetPoint" />
          </mxGeometry>
        </mxCell>
        <mxCell id="wjPzUMsghU-6CyUc37jF-15" value="&lt;b&gt;&lt;font style=&quot;font-size: 14px;&quot;&gt;加密&lt;/font&gt;&lt;/b&gt;" style="edgeLabel;html=1;align=center;verticalAlign=middle;resizable=0;points=[];" vertex="1" connectable="0" parent="wjPzUMsghU-6CyUc37jF-14">
          <mxGeometry x="-0.0666" relative="1" as="geometry">
            <mxPoint as="offset" />
          </mxGeometry>
        </mxCell>
        <mxCell id="wjPzUMsghU-6CyUc37jF-16" value="" style="image;sketch=0;aspect=fixed;html=1;points=[];align=center;fontSize=12;image=img/lib/mscae/Key.svg;" vertex="1" parent="1">
          <mxGeometry x="280" y="370" width="31" height="50" as="geometry" />
        </mxCell>
        <mxCell id="wjPzUMsghU-6CyUc37jF-17" value="&lt;b&gt;算法&lt;/b&gt;" style="shape=image;html=1;verticalLabelPosition=bottom;verticalAlign=top;imageAspect=1;aspect=fixed;image=img/clipart/Gear_128x128.png" vertex="1" parent="1">
          <mxGeometry x="269.5" y="440" width="52" height="61" as="geometry" />
        </mxCell>
        <mxCell id="wjPzUMsghU-6CyUc37jF-18" value="&lt;h1 style=&quot;&quot;&gt;&lt;font style=&quot;font-size: 18px;&quot;&gt;密文&lt;/font&gt;&lt;/h1&gt;&lt;p&gt;&amp;amp;*&amp;amp;(*&amp;amp;*(*(@&lt;/p&gt;" style="text;html=1;strokeColor=#82b366;fillColor=#d5e8d4;spacing=5;spacingTop=-20;whiteSpace=wrap;overflow=hidden;rounded=0;align=left;" vertex="1" parent="1">
          <mxGeometry x="370" y="390" width="140" height="80" as="geometry" />
        </mxCell>
        <mxCell id="wjPzUMsghU-6CyUc37jF-19" value="" style="shape=flexArrow;endArrow=classic;html=1;rounded=0;exitX=1;exitY=0.5;exitDx=0;exitDy=0;fillColor=#fff2cc;strokeColor=#d6b656;" edge="1" parent="1">
          <mxGeometry width="50" height="50" relative="1" as="geometry">
            <mxPoint x="510" y="430" as="sourcePoint" />
            <mxPoint x="650" y="430" as="targetPoint" />
          </mxGeometry>
        </mxCell>
        <mxCell id="wjPzUMsghU-6CyUc37jF-20" value="&lt;b&gt;&lt;font style=&quot;font-size: 14px;&quot;&gt;解密&lt;/font&gt;&lt;/b&gt;" style="edgeLabel;html=1;align=center;verticalAlign=middle;resizable=0;points=[];" vertex="1" connectable="0" parent="wjPzUMsghU-6CyUc37jF-19">
          <mxGeometry x="-0.0666" relative="1" as="geometry">
            <mxPoint as="offset" />
          </mxGeometry>
        </mxCell>
        <mxCell id="wjPzUMsghU-6CyUc37jF-21" value="" style="image;sketch=0;aspect=fixed;html=1;points=[];align=center;fontSize=12;image=img/lib/mscae/Key.svg;" vertex="1" parent="1">
          <mxGeometry x="560" y="370" width="31" height="50" as="geometry" />
        </mxCell>
        <mxCell id="wjPzUMsghU-6CyUc37jF-22" value="&lt;b&gt;算法&lt;/b&gt;" style="shape=image;html=1;verticalLabelPosition=bottom;verticalAlign=top;imageAspect=1;aspect=fixed;image=img/clipart/Gear_128x128.png" vertex="1" parent="1">
          <mxGeometry x="549.5" y="440" width="52" height="61" as="geometry" />
        </mxCell>
        <mxCell id="wjPzUMsghU-6CyUc37jF-23" value="&lt;h1 style=&quot;&quot;&gt;&lt;font style=&quot;font-size: 18px;&quot;&gt;明文&lt;/font&gt;&lt;/h1&gt;&lt;p&gt;Hello Cipher&lt;/p&gt;" style="text;html=1;strokeColor=#82b366;fillColor=#d5e8d4;spacing=5;spacingTop=-20;whiteSpace=wrap;overflow=hidden;rounded=0;align=left;" vertex="1" parent="1">
          <mxGeometry x="650" y="390" width="140" height="80" as="geometry" />
        </mxCell>
        <mxCell id="wjPzUMsghU-6CyUc37jF-24" value="" style="endArrow=classic;html=1;rounded=0;exitX=0.462;exitY=0.022;exitDx=0;exitDy=0;exitPerimeter=0;fillColor=#fff2cc;strokeColor=#d6b656;entryX=0;entryY=0.5;entryDx=0;entryDy=0;" edge="1" parent="1" target="wjPzUMsghU-6CyUc37jF-27">
          <mxGeometry width="50" height="50" relative="1" as="geometry">
            <mxPoint x="298.0019999999999" y="369.9999999999999" as="sourcePoint" />
            <mxPoint x="390" y="340" as="targetPoint" />
          </mxGeometry>
        </mxCell>
        <mxCell id="wjPzUMsghU-6CyUc37jF-27" value="&lt;b&gt;密钥相同&lt;/b&gt;" style="shape=ext;double=1;rounded=1;whiteSpace=wrap;html=1;fillColor=#e1d5e7;strokeColor=#9673a6;" vertex="1" parent="1">
          <mxGeometry x="395" y="320" width="90" height="40" as="geometry" />
        </mxCell>
        <mxCell id="wjPzUMsghU-6CyUc37jF-25" value="" style="endArrow=classic;html=1;rounded=0;exitX=0.462;exitY=-0.078;exitDx=0;exitDy=0;exitPerimeter=0;fillColor=#fff2cc;strokeColor=#d6b656;entryX=1;entryY=0.5;entryDx=0;entryDy=0;" edge="1" parent="1" target="wjPzUMsghU-6CyUc37jF-27">
          <mxGeometry width="50" height="50" relative="1" as="geometry">
            <mxPoint x="575.3219999999999" y="370.1" as="sourcePoint" />
            <mxPoint x="460" y="330" as="targetPoint" />
          </mxGeometry>
        </mxCell>
        <mxCell id="wjPzUMsghU-6CyUc37jF-28" value="&lt;h1 style=&quot;&quot;&gt;&lt;font style=&quot;font-size: 18px;&quot;&gt;明文&lt;/font&gt;&lt;/h1&gt;&lt;p&gt;Hello Cipher&lt;/p&gt;" style="text;html=1;strokeColor=#82b366;fillColor=#d5e8d4;spacing=5;spacingTop=-20;whiteSpace=wrap;overflow=hidden;rounded=0;align=left;" vertex="1" parent="1">
          <mxGeometry x="90" y="640" width="140" height="80" as="geometry" />
        </mxCell>
        <mxCell id="wjPzUMsghU-6CyUc37jF-29" value="" style="shape=flexArrow;endArrow=classic;html=1;rounded=0;exitX=1;exitY=0.5;exitDx=0;exitDy=0;fillColor=#fff2cc;strokeColor=#d6b656;" edge="1" parent="1" source="wjPzUMsghU-6CyUc37jF-28">
          <mxGeometry width="50" height="50" relative="1" as="geometry">
            <mxPoint x="380" y="810" as="sourcePoint" />
            <mxPoint x="370" y="680" as="targetPoint" />
          </mxGeometry>
        </mxCell>
        <mxCell id="wjPzUMsghU-6CyUc37jF-30" value="&lt;b&gt;&lt;font style=&quot;font-size: 14px;&quot;&gt;加密&lt;/font&gt;&lt;/b&gt;" style="edgeLabel;html=1;align=center;verticalAlign=middle;resizable=0;points=[];" vertex="1" connectable="0" parent="wjPzUMsghU-6CyUc37jF-29">
          <mxGeometry x="-0.0666" relative="1" as="geometry">
            <mxPoint as="offset" />
          </mxGeometry>
        </mxCell>
        <mxCell id="wjPzUMsghU-6CyUc37jF-31" value="" style="image;sketch=0;aspect=fixed;html=1;points=[];align=center;fontSize=12;image=img/lib/mscae/Key.svg;" vertex="1" parent="1">
          <mxGeometry x="280" y="620" width="31" height="50" as="geometry" />
        </mxCell>
        <mxCell id="wjPzUMsghU-6CyUc37jF-32" value="&lt;b&gt;算法&lt;/b&gt;" style="shape=image;html=1;verticalLabelPosition=bottom;verticalAlign=top;imageAspect=1;aspect=fixed;image=img/clipart/Gear_128x128.png" vertex="1" parent="1">
          <mxGeometry x="269.5" y="690" width="52" height="61" as="geometry" />
        </mxCell>
        <mxCell id="wjPzUMsghU-6CyUc37jF-33" value="&lt;h1 style=&quot;&quot;&gt;&lt;font style=&quot;font-size: 18px;&quot;&gt;密文&lt;/font&gt;&lt;/h1&gt;&lt;p&gt;&amp;amp;*&amp;amp;(*&amp;amp;*(*(@&lt;/p&gt;" style="text;html=1;strokeColor=#82b366;fillColor=#d5e8d4;spacing=5;spacingTop=-20;whiteSpace=wrap;overflow=hidden;rounded=0;align=left;" vertex="1" parent="1">
          <mxGeometry x="370" y="640" width="140" height="80" as="geometry" />
        </mxCell>
        <mxCell id="wjPzUMsghU-6CyUc37jF-34" value="" style="shape=flexArrow;endArrow=classic;html=1;rounded=0;exitX=1;exitY=0.5;exitDx=0;exitDy=0;fillColor=#fff2cc;strokeColor=#d6b656;" edge="1" parent="1">
          <mxGeometry width="50" height="50" relative="1" as="geometry">
            <mxPoint x="510" y="680" as="sourcePoint" />
            <mxPoint x="650" y="680" as="targetPoint" />
          </mxGeometry>
        </mxCell>
        <mxCell id="wjPzUMsghU-6CyUc37jF-35" value="&lt;b&gt;&lt;font style=&quot;font-size: 14px;&quot;&gt;解密&lt;/font&gt;&lt;/b&gt;" style="edgeLabel;html=1;align=center;verticalAlign=middle;resizable=0;points=[];" vertex="1" connectable="0" parent="wjPzUMsghU-6CyUc37jF-34">
          <mxGeometry x="-0.0666" relative="1" as="geometry">
            <mxPoint as="offset" />
          </mxGeometry>
        </mxCell>
        <mxCell id="wjPzUMsghU-6CyUc37jF-37" value="&lt;b&gt;算法&lt;/b&gt;" style="shape=image;html=1;verticalLabelPosition=bottom;verticalAlign=top;imageAspect=1;aspect=fixed;image=img/clipart/Gear_128x128.png" vertex="1" parent="1">
          <mxGeometry x="549.5" y="690" width="52" height="61" as="geometry" />
        </mxCell>
        <mxCell id="wjPzUMsghU-6CyUc37jF-38" value="&lt;h1 style=&quot;&quot;&gt;&lt;font style=&quot;font-size: 18px;&quot;&gt;明文&lt;/font&gt;&lt;/h1&gt;&lt;p&gt;Hello Cipher&lt;/p&gt;" style="text;html=1;strokeColor=#82b366;fillColor=#d5e8d4;spacing=5;spacingTop=-20;whiteSpace=wrap;overflow=hidden;rounded=0;align=left;" vertex="1" parent="1">
          <mxGeometry x="650" y="640" width="140" height="80" as="geometry" />
        </mxCell>
        <mxCell id="wjPzUMsghU-6CyUc37jF-39" value="" style="endArrow=classic;html=1;rounded=0;exitX=0.462;exitY=0.022;exitDx=0;exitDy=0;exitPerimeter=0;fillColor=#fff2cc;strokeColor=#d6b656;entryX=0;entryY=0.5;entryDx=0;entryDy=0;" edge="1" parent="1" target="wjPzUMsghU-6CyUc37jF-40">
          <mxGeometry width="50" height="50" relative="1" as="geometry">
            <mxPoint x="298.0019999999999" y="619.9999999999999" as="sourcePoint" />
            <mxPoint x="390" y="590" as="targetPoint" />
          </mxGeometry>
        </mxCell>
        <mxCell id="wjPzUMsghU-6CyUc37jF-40" value="&lt;b&gt;密钥不同&lt;/b&gt;" style="shape=ext;double=1;rounded=1;whiteSpace=wrap;html=1;fillColor=#e1d5e7;strokeColor=#9673a6;" vertex="1" parent="1">
          <mxGeometry x="395" y="570" width="90" height="40" as="geometry" />
        </mxCell>
        <mxCell id="wjPzUMsghU-6CyUc37jF-41" value="" style="endArrow=classic;html=1;rounded=0;exitX=0.462;exitY=-0.078;exitDx=0;exitDy=0;exitPerimeter=0;fillColor=#fff2cc;strokeColor=#d6b656;entryX=1;entryY=0.5;entryDx=0;entryDy=0;" edge="1" parent="1" target="wjPzUMsghU-6CyUc37jF-40">
          <mxGeometry width="50" height="50" relative="1" as="geometry">
            <mxPoint x="575.3219999999999" y="620.1" as="sourcePoint" />
            <mxPoint x="460" y="580" as="targetPoint" />
          </mxGeometry>
        </mxCell>
        <mxCell id="wjPzUMsghU-6CyUc37jF-42" value="" style="sketch=0;aspect=fixed;pointerEvents=1;shadow=0;dashed=0;html=1;strokeColor=none;labelPosition=center;verticalLabelPosition=bottom;verticalAlign=top;align=center;fillColor=#00188D;shape=mxgraph.mscae.enterprise.key_permissions" vertex="1" parent="1">
          <mxGeometry x="565" y="620" width="26" height="50" as="geometry" />
        </mxCell>
      </root>
    </mxGraphModel>
  </diagram>
</mxfile>
